<svg width="302" height="201" viewBox="0 0 302 201" fill="none" xmlns="http://www.w3.org/2000/svg">
<path d="M51.06 118.8C65.6071 118.8 77.4 107.007 77.4 92.4599C77.4 77.9127 65.6071 66.1199 51.06 66.1199C36.5128 66.1199 24.72 77.9127 24.72 92.4599C24.72 107.007 36.5128 118.8 51.06 118.8Z" fill="#ECAE42" stroke="black" stroke-miterlimit="10"/>
<path d="M250.59 118.8C265.137 118.8 276.93 107.007 276.93 92.4599C276.93 77.9127 265.137 66.1199 250.59 66.1199C236.043 66.1199 224.25 77.9127 224.25 92.4599C224.25 107.007 236.043 118.8 250.59 118.8Z" fill="#686EE0" stroke="black" stroke-miterlimit="10"/>
<path d="M1 200.15C1 200.15 1 122.81 51.47 123.42C101.94 124.03 101.12 200.15 101.12 200.15H1Z" fill="#ECAE42" stroke="black" stroke-miterlimit="10"/>
<path d="M200.53 200.15C200.53 200.15 200.53 122.81 251 123.42C301.47 124.03 300.65 200.15 300.65 200.15H200.53Z" fill="#686EE0" stroke="black" stroke-miterlimit="10"/>
<path d="M234.88 38.4V38.02V37.89V10.37C234.88 5.77 231.39 2 227.13 2H168.19C163.93 2 160.44 5.77 160.44 10.37V38.41C160.44 43.01 163.93 46.78 168.19 46.78H225L239.34 55.49L234.88 38.4Z" stroke="#686EE0" stroke-width="3" stroke-miterlimit="10"/>
<path d="M90.72 95.8999V95.4599V95.2999V63.5699C90.72 58.2599 94.41 53.9199 98.92 53.9199H161.32C165.83 53.9199 169.52 58.2599 169.52 63.5699V95.8999C169.52 101.21 165.83 105.55 161.32 105.55H101.17L85.99 115.59L90.72 95.8999Z" stroke="#ECAE42" stroke-width="3" stroke-miterlimit="10"/>
<path d="M180.84 27.46C182.221 27.46 183.34 26.3407 183.34 24.96C183.34 23.5792 182.221 22.46 180.84 22.46C179.459 22.46 178.34 23.5792 178.34 24.96C178.34 26.3407 179.459 27.46 180.84 27.46Z" fill="#686EE0"/>
<path d="M199.08 27.46C200.461 27.46 201.58 26.3407 201.58 24.96C201.58 23.5792 200.461 22.46 199.08 22.46C197.699 22.46 196.58 23.5792 196.58 24.96C196.58 26.3407 197.699 27.46 199.08 27.46Z" fill="#686EE0"/>
<path d="M216.36 27.46C217.741 27.46 218.86 26.3407 218.86 24.96C218.86 23.5792 217.741 22.46 216.36 22.46C214.979 22.46 213.86 23.5792 213.86 24.96C213.86 26.3407 214.979 27.46 216.36 27.46Z" fill="#686EE0"/>
<path d="M108.03 72.24H153.11" stroke="#ECAE42" stroke-width="2" stroke-miterlimit="10"/>
<path d="M117.87 81.51H143.27" stroke="#ECAE42" stroke-width="2" stroke-miterlimit="10"/>
<path d="M108.03 90.46H153.11" stroke="#ECAE42" stroke-width="2" stroke-miterlimit="10"/>
</svg>
