<svg width="233" height="143" viewBox="0 0 233 143" fill="none" xmlns="http://www.w3.org/2000/svg">
<path d="M117 114V131.5H114C102.8 110.3 40.6667 107 11 108L13 91C71.8 91.8 106.833 106.667 117 114Z" fill="#E7E7E7" stroke="black"/>
<path d="M117 114V131.5H120C131.2 110.3 193.333 107 223 108L221 91C162.2 91.8 127.167 106.667 117 114Z" fill="#E7E7E7" stroke="black"/>
<path d="M65 0.5H170C177.456 0.5 183.5 6.54416 183.5 14V52.232C183.5 59.6879 177.456 65.732 170 65.732H133.628C128.325 65.732 123.451 68.6291 120.887 73.2685C119.857 75.1316 118.817 77.0023 118.023 78.4067C117.629 79.105 117.296 79.6855 117.056 80.0919C117.049 80.0815 117.043 80.0709 117.036 80.0602C116.772 79.6344 116.406 79.0248 115.971 78.2934C115.102 76.8315 113.968 74.8924 112.859 72.9858C110.252 68.5043 105.465 65.732 100.278 65.732H65C57.5442 65.732 51.5 59.6879 51.5 52.232V14C51.5 6.54416 57.5442 0.5 65 0.5Z" fill="#E7E7E7" stroke="black"/>
<mask id="path-4-outside-1_118_1767" maskUnits="userSpaceOnUse" x="64" y="22" width="105" height="24" fill="black">
<rect fill="white" x="64" y="22" width="105" height="24"/>
<path d="M69.096 24.64C69.8853 26.9867 70.7813 29.568 71.784 32.384C72.7867 35.1787 73.704 37.6 74.536 39.648C75.1547 37.664 76.008 35.2853 77.096 32.512C78.184 29.7173 79.1973 27.2 80.136 24.96C80.4133 24.2987 80.8827 23.968 81.544 23.968C82.1627 23.968 82.632 24.096 82.952 24.352C83.272 24.5867 83.432 25.0027 83.432 25.6C83.432 25.8347 83.4 26.0373 83.336 26.208C83.272 26.3787 83.176 26.6027 83.048 26.88C82.3867 28.1813 81.7253 29.6853 81.064 31.392C80.4027 33.0773 79.592 35.2213 78.632 37.824C78.6747 37.7173 78.376 38.5173 77.736 40.224L76.68 42.976C76.552 43.3173 76.3387 43.584 76.04 43.776C75.7627 43.9467 75.4427 44.032 75.08 44.032C74.7173 44.032 74.312 43.9467 73.864 43.776C73.4373 43.584 73.128 43.392 72.936 43.2C72.2107 41.8133 71.2827 39.808 70.152 37.184C69.0427 34.56 68.0827 32.1387 67.272 29.92L66.792 28.608C66.472 27.712 66.2373 27.0293 66.088 26.56C65.9387 26.0693 65.864 25.6747 65.864 25.376C65.864 24.9493 66.0987 24.608 66.568 24.352C67.0587 24.096 67.528 23.968 67.976 23.968C68.2107 23.968 68.4347 24.0213 68.648 24.128C68.8613 24.2347 69.0107 24.4053 69.096 24.64ZM94.6665 23.648C96.0958 23.648 97.3972 23.8293 98.5705 24.192C99.7438 24.5333 100.704 25.0453 101.451 25.728C102.795 26.944 103.733 28.2773 104.267 29.728C104.821 31.1573 105.099 32.992 105.099 35.232C105.099 35.7013 105.035 36.128 104.907 36.512C104.8 36.896 104.619 37.3867 104.363 37.984C104.043 38.6453 103.851 39.168 103.787 39.552C103.36 40.2987 102.656 41.0133 101.675 41.696C100.715 42.3787 99.6692 42.9333 98.5385 43.36C97.4078 43.7867 96.4158 44 95.5625 44C91.4452 44 88.5118 42.592 86.7625 39.776C86.2718 38.9867 85.8878 38.1653 85.6105 37.312C85.3545 36.4587 85.2265 35.6267 85.2265 34.816C85.2265 32.64 85.6105 30.752 86.3785 29.152C87.1678 27.5307 88.2558 26.272 89.6425 25.376C90.4745 24.8853 91.3385 24.48 92.2345 24.16C93.1518 23.8187 93.9625 23.648 94.6665 23.648ZM88.5545 34.912C88.5545 36.064 88.8105 37.0133 89.3225 37.76C89.8558 38.5067 90.6665 39.3173 91.7545 40.192C92.6505 40.5333 93.2585 40.7573 93.5785 40.864C93.8985 40.9493 94.2612 40.992 94.6665 40.992C96.8212 40.992 98.5385 40.4053 99.8185 39.232C101.099 38.0587 101.739 36.448 101.739 34.4C101.739 32.7787 101.557 31.4987 101.194 30.56C100.832 29.6213 100.181 28.7787 99.2425 28.032C98.7518 27.6267 98.1225 27.328 97.3545 27.136C96.6078 26.944 95.7972 26.848 94.9225 26.848C93.5998 26.848 92.4585 27.2427 91.4985 28.032C90.5385 28.8 89.8025 29.8027 89.2905 31.04C88.7998 32.2773 88.5545 33.568 88.5545 34.912ZM124.67 26.816C124.99 27.2 125.214 27.5093 125.342 27.744C125.47 27.9787 125.534 28.2027 125.534 28.416C125.534 28.672 125.363 28.9707 125.022 29.312C124.702 29.6533 124.382 29.824 124.062 29.824C123.635 29.824 123.294 29.76 123.038 29.632C122.782 29.504 122.569 29.3013 122.398 29.024C121.993 28.384 121.523 27.8187 120.99 27.328C120.457 26.816 119.742 26.56 118.846 26.56C117.971 26.56 116.99 26.7627 115.902 27.168C114.814 27.5733 114.014 28.0747 113.502 28.672C112.35 30.08 111.774 31.9467 111.774 34.272C111.774 36.128 112.35 37.7173 113.502 39.04C114.718 40.4053 116.254 41.088 118.11 41.088C118.963 41.088 119.891 40.9387 120.894 40.64C121.918 40.32 122.729 39.808 123.326 39.104H123.294C123.678 38.6987 124.158 38.496 124.734 38.496C125.075 38.496 125.395 38.6453 125.694 38.944C126.014 39.2427 126.174 39.5413 126.174 39.84C126.174 40.16 126.121 40.448 126.014 40.704C125.929 40.9387 125.758 41.2053 125.502 41.504C124.627 42.464 123.507 43.136 122.142 43.52C120.798 43.8827 119.262 44.064 117.534 44.064C116.105 44.064 114.729 43.7227 113.406 43.04C112.105 42.3573 111.027 41.4933 110.174 40.448C109.747 39.8293 109.331 38.944 108.926 37.792C108.542 36.6187 108.35 35.6693 108.35 34.944C108.35 33.088 108.627 31.328 109.182 29.664C109.758 27.9787 110.611 26.6347 111.742 25.632C112.489 24.9493 113.566 24.4373 114.974 24.096C116.382 23.7547 117.673 23.584 118.846 23.584C119.785 23.584 120.585 23.7227 121.246 24C121.929 24.256 122.515 24.608 123.006 25.056C123.497 25.4827 124.051 26.0693 124.67 26.816ZM144.208 43.52C143.931 43.1573 143.697 42.7627 143.505 42.336C143.313 41.888 143.11 41.3547 142.897 40.736C142.854 40.6293 142.726 40.3093 142.513 39.776C142.321 39.2427 142.097 38.784 141.841 38.4C140.497 38.592 139.398 38.688 138.545 38.688C138.075 38.688 137.553 38.6773 136.977 38.656C136.422 38.6133 136.006 38.592 135.729 38.592C134.662 38.5067 133.809 38.464 133.169 38.464C132.913 38.8053 132.689 39.168 132.497 39.552C132.326 39.936 132.102 40.512 131.825 41.28C131.441 42.3893 131.11 43.1787 130.833 43.648C130.641 43.968 130.267 44.128 129.713 44.128C129.243 44.128 128.806 44.032 128.401 43.84C128.017 43.6267 127.825 43.3387 127.825 42.976C127.995 42.1653 128.262 41.312 128.625 40.416C129.009 39.4987 129.553 38.2827 130.257 36.768L131.536 33.632C132.241 31.84 132.881 30.304 133.457 29.024C134.054 27.744 134.833 26.2293 135.793 24.48C135.921 24.224 136.134 24.0107 136.433 23.84C136.731 23.648 137.062 23.552 137.425 23.552C137.83 23.552 138.118 23.584 138.289 23.648C138.481 23.6907 138.63 23.776 138.737 23.904C138.843 24.0107 139.003 24.2453 139.217 24.608C139.942 25.7387 140.561 26.9013 141.073 28.096C141.606 29.2907 142.278 30.944 143.089 33.056L143.76 34.752C144.358 36.288 144.87 37.5787 145.297 38.624C145.745 39.648 146.235 40.5867 146.769 41.44C147.11 41.9947 147.281 42.3787 147.281 42.592C147.281 43.104 147.121 43.4987 146.801 43.776C146.502 44.032 146.107 44.16 145.617 44.16C144.998 44.16 144.529 43.9467 144.208 43.52ZM140.913 35.776C140.571 35.0507 140.081 33.792 139.441 32C138.779 30.08 138.118 28.5547 137.457 27.424C137.051 28.448 136.454 29.7707 135.665 31.392C135.131 32.3947 134.523 33.8453 133.841 35.744C135.206 35.9147 136.678 36 138.257 36C139.387 36 140.273 35.9253 140.913 35.776ZM162.885 33.216C164.421 33.4293 165.573 33.9947 166.341 34.912C167.109 35.808 167.493 36.864 167.493 38.08C167.493 39.2747 167.099 40.352 166.309 41.312C165.541 42.272 164.549 42.9333 163.333 43.296C162.715 43.5307 161.787 43.7227 160.549 43.872C159.333 44 158.235 44.064 157.253 44.064C155.547 44.064 153.797 43.904 152.005 43.584C151.685 43.52 151.344 43.36 150.981 43.104C150.64 42.848 150.469 42.4747 150.469 41.984C150.448 41.0667 150.459 39.7867 150.501 38.144C150.544 36.9067 150.565 35.9893 150.565 35.392C150.565 34.688 150.555 34.1547 150.533 33.792C150.533 33.216 150.512 32.3307 150.469 31.136C150.405 29.856 150.373 28.544 150.373 27.2C149.883 26.7733 149.637 26.2613 149.637 25.664C149.637 25.216 149.829 24.8533 150.213 24.576C150.619 24.2773 151.099 24.1067 151.653 24.064L152.869 23.968C155.28 23.7333 156.891 23.616 157.701 23.616C159.195 23.616 160.571 23.8187 161.829 24.224C163.109 24.608 164.165 25.216 164.997 26.048C165.296 26.3893 165.541 26.8267 165.733 27.36C165.925 27.872 166.021 28.3733 166.021 28.864C166.043 29.888 165.776 30.8053 165.221 31.616C164.667 32.4053 163.888 32.9387 162.885 33.216ZM157.893 26.336C157.168 26.336 156.411 26.3787 155.621 26.464C154.853 26.5493 154.203 26.656 153.669 26.784L153.861 32.384L155.013 32.352L155.589 32.32L156.869 32.352C157.467 32.3947 157.893 32.416 158.149 32.416C158.405 32.416 158.725 32.3947 159.109 32.352C161.435 31.8613 162.597 30.8907 162.597 29.44C162.597 29.12 162.533 28.8 162.405 28.48C162.277 28.1387 162.139 27.8933 161.989 27.744C161.413 27.1893 160.827 26.816 160.229 26.624C159.632 26.432 158.853 26.336 157.893 26.336ZM153.797 41.12C154.224 41.184 154.821 41.2373 155.589 41.28C156.379 41.3227 157.061 41.344 157.637 41.344C159.365 41.344 160.816 41.0667 161.989 40.512C163.163 39.9573 163.749 39.136 163.749 38.048C163.749 37.6 163.568 37.1413 163.205 36.672C162.843 36.2027 162.363 35.8187 161.765 35.52C161.168 35.2213 160.539 35.072 159.877 35.072L158.117 35.104C157.008 35.1467 156.144 35.168 155.525 35.168C155.035 35.168 154.512 35.1467 153.957 35.104C153.936 36.3413 153.883 38.3467 153.797 41.12Z"/>
</mask>
<path d="M69.096 24.64C69.8853 26.9867 70.7813 29.568 71.784 32.384C72.7867 35.1787 73.704 37.6 74.536 39.648C75.1547 37.664 76.008 35.2853 77.096 32.512C78.184 29.7173 79.1973 27.2 80.136 24.96C80.4133 24.2987 80.8827 23.968 81.544 23.968C82.1627 23.968 82.632 24.096 82.952 24.352C83.272 24.5867 83.432 25.0027 83.432 25.6C83.432 25.8347 83.4 26.0373 83.336 26.208C83.272 26.3787 83.176 26.6027 83.048 26.88C82.3867 28.1813 81.7253 29.6853 81.064 31.392C80.4027 33.0773 79.592 35.2213 78.632 37.824C78.6747 37.7173 78.376 38.5173 77.736 40.224L76.68 42.976C76.552 43.3173 76.3387 43.584 76.04 43.776C75.7627 43.9467 75.4427 44.032 75.08 44.032C74.7173 44.032 74.312 43.9467 73.864 43.776C73.4373 43.584 73.128 43.392 72.936 43.2C72.2107 41.8133 71.2827 39.808 70.152 37.184C69.0427 34.56 68.0827 32.1387 67.272 29.92L66.792 28.608C66.472 27.712 66.2373 27.0293 66.088 26.56C65.9387 26.0693 65.864 25.6747 65.864 25.376C65.864 24.9493 66.0987 24.608 66.568 24.352C67.0587 24.096 67.528 23.968 67.976 23.968C68.2107 23.968 68.4347 24.0213 68.648 24.128C68.8613 24.2347 69.0107 24.4053 69.096 24.64ZM94.6665 23.648C96.0958 23.648 97.3972 23.8293 98.5705 24.192C99.7438 24.5333 100.704 25.0453 101.451 25.728C102.795 26.944 103.733 28.2773 104.267 29.728C104.821 31.1573 105.099 32.992 105.099 35.232C105.099 35.7013 105.035 36.128 104.907 36.512C104.8 36.896 104.619 37.3867 104.363 37.984C104.043 38.6453 103.851 39.168 103.787 39.552C103.36 40.2987 102.656 41.0133 101.675 41.696C100.715 42.3787 99.6692 42.9333 98.5385 43.36C97.4078 43.7867 96.4158 44 95.5625 44C91.4452 44 88.5118 42.592 86.7625 39.776C86.2718 38.9867 85.8878 38.1653 85.6105 37.312C85.3545 36.4587 85.2265 35.6267 85.2265 34.816C85.2265 32.64 85.6105 30.752 86.3785 29.152C87.1678 27.5307 88.2558 26.272 89.6425 25.376C90.4745 24.8853 91.3385 24.48 92.2345 24.16C93.1518 23.8187 93.9625 23.648 94.6665 23.648ZM88.5545 34.912C88.5545 36.064 88.8105 37.0133 89.3225 37.76C89.8558 38.5067 90.6665 39.3173 91.7545 40.192C92.6505 40.5333 93.2585 40.7573 93.5785 40.864C93.8985 40.9493 94.2612 40.992 94.6665 40.992C96.8212 40.992 98.5385 40.4053 99.8185 39.232C101.099 38.0587 101.739 36.448 101.739 34.4C101.739 32.7787 101.557 31.4987 101.194 30.56C100.832 29.6213 100.181 28.7787 99.2425 28.032C98.7518 27.6267 98.1225 27.328 97.3545 27.136C96.6078 26.944 95.7972 26.848 94.9225 26.848C93.5998 26.848 92.4585 27.2427 91.4985 28.032C90.5385 28.8 89.8025 29.8027 89.2905 31.04C88.7998 32.2773 88.5545 33.568 88.5545 34.912ZM124.67 26.816C124.99 27.2 125.214 27.5093 125.342 27.744C125.47 27.9787 125.534 28.2027 125.534 28.416C125.534 28.672 125.363 28.9707 125.022 29.312C124.702 29.6533 124.382 29.824 124.062 29.824C123.635 29.824 123.294 29.76 123.038 29.632C122.782 29.504 122.569 29.3013 122.398 29.024C121.993 28.384 121.523 27.8187 120.99 27.328C120.457 26.816 119.742 26.56 118.846 26.56C117.971 26.56 116.99 26.7627 115.902 27.168C114.814 27.5733 114.014 28.0747 113.502 28.672C112.35 30.08 111.774 31.9467 111.774 34.272C111.774 36.128 112.35 37.7173 113.502 39.04C114.718 40.4053 116.254 41.088 118.11 41.088C118.963 41.088 119.891 40.9387 120.894 40.64C121.918 40.32 122.729 39.808 123.326 39.104H123.294C123.678 38.6987 124.158 38.496 124.734 38.496C125.075 38.496 125.395 38.6453 125.694 38.944C126.014 39.2427 126.174 39.5413 126.174 39.84C126.174 40.16 126.121 40.448 126.014 40.704C125.929 40.9387 125.758 41.2053 125.502 41.504C124.627 42.464 123.507 43.136 122.142 43.52C120.798 43.8827 119.262 44.064 117.534 44.064C116.105 44.064 114.729 43.7227 113.406 43.04C112.105 42.3573 111.027 41.4933 110.174 40.448C109.747 39.8293 109.331 38.944 108.926 37.792C108.542 36.6187 108.35 35.6693 108.35 34.944C108.35 33.088 108.627 31.328 109.182 29.664C109.758 27.9787 110.611 26.6347 111.742 25.632C112.489 24.9493 113.566 24.4373 114.974 24.096C116.382 23.7547 117.673 23.584 118.846 23.584C119.785 23.584 120.585 23.7227 121.246 24C121.929 24.256 122.515 24.608 123.006 25.056C123.497 25.4827 124.051 26.0693 124.67 26.816ZM144.208 43.52C143.931 43.1573 143.697 42.7627 143.505 42.336C143.313 41.888 143.11 41.3547 142.897 40.736C142.854 40.6293 142.726 40.3093 142.513 39.776C142.321 39.2427 142.097 38.784 141.841 38.4C140.497 38.592 139.398 38.688 138.545 38.688C138.075 38.688 137.553 38.6773 136.977 38.656C136.422 38.6133 136.006 38.592 135.729 38.592C134.662 38.5067 133.809 38.464 133.169 38.464C132.913 38.8053 132.689 39.168 132.497 39.552C132.326 39.936 132.102 40.512 131.825 41.28C131.441 42.3893 131.11 43.1787 130.833 43.648C130.641 43.968 130.267 44.128 129.713 44.128C129.243 44.128 128.806 44.032 128.401 43.84C128.017 43.6267 127.825 43.3387 127.825 42.976C127.995 42.1653 128.262 41.312 128.625 40.416C129.009 39.4987 129.553 38.2827 130.257 36.768L131.536 33.632C132.241 31.84 132.881 30.304 133.457 29.024C134.054 27.744 134.833 26.2293 135.793 24.48C135.921 24.224 136.134 24.0107 136.433 23.84C136.731 23.648 137.062 23.552 137.425 23.552C137.83 23.552 138.118 23.584 138.289 23.648C138.481 23.6907 138.63 23.776 138.737 23.904C138.843 24.0107 139.003 24.2453 139.217 24.608C139.942 25.7387 140.561 26.9013 141.073 28.096C141.606 29.2907 142.278 30.944 143.089 33.056L143.76 34.752C144.358 36.288 144.87 37.5787 145.297 38.624C145.745 39.648 146.235 40.5867 146.769 41.44C147.11 41.9947 147.281 42.3787 147.281 42.592C147.281 43.104 147.121 43.4987 146.801 43.776C146.502 44.032 146.107 44.16 145.617 44.16C144.998 44.16 144.529 43.9467 144.208 43.52ZM140.913 35.776C140.571 35.0507 140.081 33.792 139.441 32C138.779 30.08 138.118 28.5547 137.457 27.424C137.051 28.448 136.454 29.7707 135.665 31.392C135.131 32.3947 134.523 33.8453 133.841 35.744C135.206 35.9147 136.678 36 138.257 36C139.387 36 140.273 35.9253 140.913 35.776ZM162.885 33.216C164.421 33.4293 165.573 33.9947 166.341 34.912C167.109 35.808 167.493 36.864 167.493 38.08C167.493 39.2747 167.099 40.352 166.309 41.312C165.541 42.272 164.549 42.9333 163.333 43.296C162.715 43.5307 161.787 43.7227 160.549 43.872C159.333 44 158.235 44.064 157.253 44.064C155.547 44.064 153.797 43.904 152.005 43.584C151.685 43.52 151.344 43.36 150.981 43.104C150.64 42.848 150.469 42.4747 150.469 41.984C150.448 41.0667 150.459 39.7867 150.501 38.144C150.544 36.9067 150.565 35.9893 150.565 35.392C150.565 34.688 150.555 34.1547 150.533 33.792C150.533 33.216 150.512 32.3307 150.469 31.136C150.405 29.856 150.373 28.544 150.373 27.2C149.883 26.7733 149.637 26.2613 149.637 25.664C149.637 25.216 149.829 24.8533 150.213 24.576C150.619 24.2773 151.099 24.1067 151.653 24.064L152.869 23.968C155.28 23.7333 156.891 23.616 157.701 23.616C159.195 23.616 160.571 23.8187 161.829 24.224C163.109 24.608 164.165 25.216 164.997 26.048C165.296 26.3893 165.541 26.8267 165.733 27.36C165.925 27.872 166.021 28.3733 166.021 28.864C166.043 29.888 165.776 30.8053 165.221 31.616C164.667 32.4053 163.888 32.9387 162.885 33.216ZM157.893 26.336C157.168 26.336 156.411 26.3787 155.621 26.464C154.853 26.5493 154.203 26.656 153.669 26.784L153.861 32.384L155.013 32.352L155.589 32.32L156.869 32.352C157.467 32.3947 157.893 32.416 158.149 32.416C158.405 32.416 158.725 32.3947 159.109 32.352C161.435 31.8613 162.597 30.8907 162.597 29.44C162.597 29.12 162.533 28.8 162.405 28.48C162.277 28.1387 162.139 27.8933 161.989 27.744C161.413 27.1893 160.827 26.816 160.229 26.624C159.632 26.432 158.853 26.336 157.893 26.336ZM153.797 41.12C154.224 41.184 154.821 41.2373 155.589 41.28C156.379 41.3227 157.061 41.344 157.637 41.344C159.365 41.344 160.816 41.0667 161.989 40.512C163.163 39.9573 163.749 39.136 163.749 38.048C163.749 37.6 163.568 37.1413 163.205 36.672C162.843 36.2027 162.363 35.8187 161.765 35.52C161.168 35.2213 160.539 35.072 159.877 35.072L158.117 35.104C157.008 35.1467 156.144 35.168 155.525 35.168C155.035 35.168 154.512 35.1467 153.957 35.104C153.936 36.3413 153.883 38.3467 153.797 41.12Z" fill="#ECAE42"/>
<path d="M69.096 24.64L70.0438 24.3212L70.0399 24.3097L70.0358 24.2983L69.096 24.64ZM71.784 32.384L70.8419 32.7194L70.8427 32.7217L71.784 32.384ZM74.536 39.648L73.6095 40.0244L74.6599 42.6099L75.4907 39.9457L74.536 39.648ZM77.096 32.512L78.0269 32.8772L78.0279 32.8748L77.096 32.512ZM80.136 24.96L79.2138 24.5733L79.2137 24.5735L80.136 24.96ZM82.952 24.352L82.3273 25.1329L82.3437 25.146L82.3606 25.1584L82.952 24.352ZM83.336 26.208L82.3997 25.8569L82.3997 25.8569L83.336 26.208ZM83.048 26.88L83.9395 27.333L83.948 27.3162L83.956 27.2991L83.048 26.88ZM81.064 31.392L81.9949 31.7573L81.9964 31.7533L81.064 31.392ZM78.632 37.824L77.6938 37.4779L79.5605 38.1954L78.632 37.824ZM77.736 40.224L78.6697 40.5823L78.6723 40.5751L77.736 40.224ZM76.68 42.976L75.7463 42.6177L75.7437 42.6249L76.68 42.976ZM76.04 43.776L76.5641 44.6277L76.5725 44.6225L76.5808 44.6172L76.04 43.776ZM73.864 43.776L73.4536 44.6879L73.4805 44.7L73.508 44.7105L73.864 43.776ZM72.936 43.2L72.0499 43.6635L72.1208 43.799L72.2289 43.9071L72.936 43.2ZM70.152 37.184L69.2309 37.5734L69.2336 37.5797L70.152 37.184ZM67.272 29.92L68.2113 29.5768L68.2111 29.5764L67.272 29.92ZM66.792 28.608L65.8502 28.9443L65.8529 28.9516L66.792 28.608ZM66.088 26.56L65.1313 26.8512L65.1351 26.8632L66.088 26.56ZM66.568 24.352L66.1054 23.4654L66.0973 23.4697L66.0891 23.4741L66.568 24.352ZM68.648 24.128L69.0952 23.2336L68.648 24.128ZM68.1482 24.9588C68.9397 27.312 69.8377 29.899 70.8419 32.7194L72.7261 32.0486C71.725 29.237 70.8309 26.6613 70.0438 24.3212L68.1482 24.9588ZM70.8427 32.7217C71.8486 35.5253 72.7709 37.9601 73.6095 40.0244L75.4625 39.2716C74.6371 37.2399 73.7247 34.8321 72.7253 32.0463L70.8427 32.7217ZM75.4907 39.9457C76.0999 37.9919 76.9443 35.637 78.0269 32.8772L76.1651 32.1468C75.0717 34.9337 74.2094 37.3361 73.5813 39.3503L75.4907 39.9457ZM78.0279 32.8748C79.1135 30.0863 80.1236 27.5771 81.0583 25.3465L79.2137 24.5735C78.2711 26.8229 77.2545 29.3484 76.1641 32.1492L78.0279 32.8748ZM81.0582 25.3467C81.1422 25.1463 81.225 25.0666 81.272 25.0335C81.3134 25.0043 81.3872 24.968 81.544 24.968V22.968C81.0395 22.968 80.548 23.097 80.12 23.3985C79.6977 23.6961 79.4071 24.1123 79.2138 24.5733L81.0582 25.3467ZM81.544 24.968C82.0462 24.968 82.2551 25.0751 82.3273 25.1329L83.5767 23.5711C83.0089 23.1169 82.2792 22.968 81.544 22.968V24.968ZM82.3606 25.1584C82.3476 25.1489 82.3587 25.1471 82.3787 25.199C82.4024 25.2608 82.432 25.3848 82.432 25.6H84.432C84.432 24.8514 84.2305 24.0495 83.5434 23.5456L82.3606 25.1584ZM82.432 25.6C82.432 25.7476 82.4114 25.8256 82.3997 25.8569L84.2723 26.5591C84.3886 26.2491 84.432 25.9218 84.432 25.6H82.432ZM82.3997 25.8569C82.3481 25.9944 82.2636 26.1932 82.14 26.4609L83.956 27.2991C84.0884 27.0121 84.1959 26.7629 84.2723 26.5591L82.3997 25.8569ZM82.1565 26.4269C81.4768 27.7645 80.8021 29.3002 80.1316 31.0307L81.9964 31.7533C82.6486 30.0704 83.2966 28.5981 83.9395 27.333L82.1565 26.4269ZM80.1331 31.0267C79.4683 32.7208 78.6551 34.8718 77.6938 37.4779L79.5702 38.1701C80.5289 35.5708 81.337 33.4338 81.9949 31.7573L80.1331 31.0267ZM79.5605 38.1954C79.5605 38.1953 79.5604 38.1955 79.5605 38.1954C79.5605 38.1954 79.5604 38.1955 79.5604 38.1955C79.5604 38.1956 79.5603 38.1957 79.5603 38.1959C79.5601 38.1963 79.5599 38.1969 79.5595 38.1978C79.559 38.1991 79.5573 38.2033 79.5548 38.2091C79.5545 38.2097 79.5457 38.2307 79.5329 38.2567C79.5291 38.2645 79.522 38.2785 79.5126 38.2957C79.5063 38.3072 79.4845 38.3469 79.4509 38.3942C79.4315 38.4205 79.3764 38.4867 79.3394 38.5254C79.2651 38.5919 78.9957 38.7477 78.7904 38.8026C78.4177 38.7905 77.8644 38.4508 77.7162 38.2071C77.6721 38.0807 77.6383 37.8822 77.636 37.8146C77.636 37.7132 77.6524 37.6343 77.6543 37.6244C77.6594 37.5978 77.6646 37.577 77.6672 37.5669C77.6726 37.5459 77.6775 37.5298 77.6792 37.5241C77.6833 37.5107 77.6866 37.5007 77.6873 37.4987C77.6894 37.4926 77.6906 37.4892 77.6898 37.4915C77.6868 37.4999 77.6782 37.5235 77.6619 37.5676C77.6306 37.6524 77.5778 37.7943 77.5032 37.9942C77.3541 38.3935 77.1196 39.0196 76.7997 39.8729L78.6723 40.5751C78.9924 39.7217 79.2272 39.0945 79.3768 38.6938C79.4515 38.4937 79.5054 38.3489 79.5381 38.2604C79.5538 38.2178 79.5665 38.1831 79.5742 38.1615C79.5761 38.1563 79.5793 38.1472 79.5827 38.1371C79.584 38.1331 79.5879 38.1216 79.5923 38.1071C79.5942 38.1009 79.5992 38.0843 79.6047 38.0629C79.6073 38.0527 79.6125 38.0318 79.6177 38.0051C79.6196 37.9951 79.636 37.9161 79.636 37.8146C79.6337 37.747 79.5999 37.5485 79.5558 37.4221C79.4075 37.1784 78.8542 36.8387 78.4815 36.8266C78.2763 36.8815 78.0068 37.0373 77.9326 37.1038C77.8955 37.1425 77.8404 37.2088 77.821 37.2351C77.7874 37.2824 77.7655 37.3222 77.7591 37.3338C77.7496 37.3511 77.7425 37.3653 77.7386 37.3733C77.7255 37.3999 77.7161 37.4221 77.7152 37.4242C77.7098 37.4369 77.7053 37.4482 77.7035 37.4526L79.5605 38.1954ZM76.8024 39.8657L75.7464 42.6177L77.6136 43.3343L78.6696 40.5823L76.8024 39.8657ZM75.7437 42.6249C75.6891 42.7703 75.6116 42.8626 75.4992 42.9348L76.5808 44.6172C77.0658 44.3054 77.4149 43.8644 77.6163 43.3271L75.7437 42.6249ZM75.5159 42.9243C75.4137 42.9873 75.2793 43.032 75.08 43.032V45.032C75.6061 45.032 76.1117 44.9061 76.5641 44.6277L75.5159 42.9243ZM75.08 43.032C74.8712 43.032 74.5889 42.982 74.22 42.8415L73.508 44.7105C74.0351 44.9113 74.5635 45.032 75.08 45.032V43.032ZM74.2744 42.8641C73.8901 42.6912 73.709 42.5588 73.6431 42.4929L72.2289 43.9071C72.547 44.2252 72.9845 44.4768 73.4536 44.6879L74.2744 42.8641ZM73.8221 42.7365C73.1142 41.3831 72.1978 39.4047 71.0704 36.7883L69.2336 37.5797C70.3676 40.2113 71.3072 42.2436 72.0499 43.6635L73.8221 42.7365ZM71.0731 36.7946C69.9689 34.1829 69.0152 31.7772 68.2113 29.5768L66.3327 30.2632C67.1501 32.5002 68.1164 34.9371 69.2309 37.5734L71.0731 36.7946ZM68.2111 29.5764L67.7311 28.2644L65.8529 28.9516L66.3329 30.2636L68.2111 29.5764ZM67.7337 28.2717C67.4148 27.3786 67.1848 26.7091 67.0409 26.2568L65.1351 26.8632C65.2898 27.3496 65.5292 28.0454 65.8503 28.9443L67.7337 28.2717ZM67.0447 26.2688C66.9066 25.8153 66.864 25.5301 66.864 25.376H64.864C64.864 25.8193 64.9707 26.3234 65.1313 26.8512L67.0447 26.2688ZM66.864 25.376C66.864 25.3622 66.8657 25.3598 66.8644 25.3642C66.8629 25.3689 66.8614 25.3704 66.864 25.3665C66.8703 25.3574 66.9113 25.3038 67.0469 25.2299L66.0891 23.4741C65.3942 23.8532 64.864 24.486 64.864 25.376H66.864ZM67.0306 25.2386C67.4115 25.0398 67.7226 24.968 67.976 24.968V22.968C67.3334 22.968 66.7058 23.1522 66.1054 23.4654L67.0306 25.2386ZM67.976 24.968C68.0528 24.968 68.1239 24.984 68.2008 25.0224L69.0952 23.2336C68.7454 23.0587 68.3685 22.968 67.976 22.968V24.968ZM68.2008 25.0224C68.2002 25.0221 68.1955 25.0197 68.1885 25.0144C68.1815 25.0089 68.1741 25.0022 68.1674 24.9945C68.1528 24.9778 68.1515 24.9689 68.1562 24.9817L70.0358 24.2983C69.8676 23.8356 69.549 23.4605 69.0952 23.2336L68.2008 25.0224ZM98.5705 24.192L98.2752 25.1474L98.2832 25.1499L98.2912 25.1522L98.5705 24.192ZM101.451 25.728L100.776 26.466L100.78 26.4695L101.451 25.728ZM104.267 29.728L103.328 30.0731L103.331 30.0814L103.334 30.0898L104.267 29.728ZM104.907 36.512L103.958 36.1958L103.95 36.2199L103.943 36.2444L104.907 36.512ZM104.363 37.984L105.263 38.4196L105.273 38.399L105.282 38.3779L104.363 37.984ZM103.786 39.552L104.655 40.0481L104.743 39.8928L104.773 39.7164L103.786 39.552ZM101.674 41.696L101.103 40.8751L101.095 40.881L101.674 41.696ZM98.5385 43.36L98.1854 42.4244L98.5385 43.36ZM86.7625 39.776L87.6119 39.2483L87.6118 39.2481L86.7625 39.776ZM85.6105 37.312L84.6527 37.5993L84.6559 37.6103L84.6595 37.6211L85.6105 37.312ZM86.3785 29.152L85.4794 28.7143L85.477 28.7193L86.3785 29.152ZM89.6425 25.376L89.1345 24.5146L89.1169 24.525L89.0998 24.5361L89.6425 25.376ZM92.2345 24.16L92.5709 25.1018L92.5832 25.0972L92.2345 24.16ZM89.3225 37.76L88.4978 38.3255L88.5032 38.3334L88.5088 38.3412L89.3225 37.76ZM91.7545 40.192L91.1279 40.9714L91.251 41.0703L91.3985 41.1265L91.7545 40.192ZM93.5785 40.864L93.2623 41.8127L93.2913 41.8224L93.3208 41.8302L93.5785 40.864ZM99.8185 39.232L100.494 39.9692L99.8185 39.232ZM101.194 30.56L100.262 30.9204H100.262L101.194 30.56ZM99.2425 28.032L98.6056 28.803L98.6127 28.8088L98.62 28.8146L99.2425 28.032ZM97.3545 27.136L97.1055 28.1045L97.112 28.1061L97.3545 27.136ZM91.4985 28.032L92.1233 28.8129L92.1336 28.8044L91.4985 28.032ZM89.2905 31.04L88.3665 30.6576L88.3637 30.6645L88.3609 30.6714L89.2905 31.04ZM94.6665 24.648C96.0117 24.648 97.2117 24.8187 98.2752 25.1474L98.8658 23.2366C97.5827 22.84 96.1799 22.648 94.6665 22.648V24.648ZM98.2912 25.1522C99.3476 25.4595 100.163 25.906 100.776 26.466L102.125 24.99C101.244 24.1846 100.14 23.6072 98.8498 23.2318L98.2912 25.1522ZM100.78 26.4695C102.024 27.5957 102.859 28.7985 103.328 30.0731L105.205 29.3829C104.607 27.7562 103.565 26.2923 102.121 24.9865L100.78 26.4695ZM103.334 30.0898C103.829 31.3636 104.099 33.0637 104.099 35.232H106.099C106.099 32.9203 105.814 30.9511 105.199 29.3662L103.334 30.0898ZM104.099 35.232C104.099 35.6106 104.047 35.9285 103.958 36.1958L105.855 36.8282C106.022 36.3275 106.099 35.792 106.099 35.232H104.099ZM103.943 36.2444C103.853 36.5671 103.691 37.0117 103.443 37.5901L105.282 38.3779C105.546 37.7616 105.746 37.2249 105.87 36.7796L103.943 36.2444ZM103.462 37.5484C103.131 38.2339 102.888 38.8599 102.8 39.3876L104.773 39.7164C104.813 39.4761 104.954 39.0568 105.263 38.4196L103.462 37.5484ZM102.918 39.0559C102.588 39.6334 102.007 40.2462 101.103 40.8751L102.246 42.5169C103.304 41.7805 104.131 40.9639 104.655 40.0481L102.918 39.0559ZM101.095 40.881C100.207 41.5127 99.2378 42.0273 98.1854 42.4244L98.8916 44.2956C100.1 43.8394 101.222 43.2447 102.254 42.511L101.095 40.881ZM98.1854 42.4244C97.1244 42.8248 96.2563 43 95.5625 43V45C96.5753 45 97.6913 44.7485 98.8916 44.2956L98.1854 42.4244ZM95.5625 43C91.6946 43 89.1332 41.6972 87.6119 39.2483L85.9131 40.3037C87.8905 43.4868 91.1957 45 95.5625 45V43ZM87.6118 39.2481C87.1622 38.5248 86.813 37.7767 86.5615 37.0029L84.6595 37.6211C84.9626 38.5539 85.3815 39.4485 85.9132 40.3039L87.6118 39.2481ZM86.5683 37.0247C86.3375 36.2554 86.2265 35.5202 86.2265 34.816H84.2265C84.2265 35.7331 84.3715 36.6619 84.6527 37.5993L86.5683 37.0247ZM86.2265 34.816C86.2265 32.7566 86.5898 31.0226 87.28 29.5847L85.477 28.7193C84.6312 30.4814 84.2265 32.5234 84.2265 34.816H86.2265ZM87.2776 29.5897C87.9947 28.1168 88.9658 27.0038 90.1852 26.2159L89.0998 24.5361C87.5459 25.5402 86.341 26.9445 85.4794 28.7143L87.2776 29.5897ZM90.1505 26.2374C90.9288 25.7784 91.7354 25.4001 92.5708 25.1017L91.8982 23.2183C90.9416 23.5599 90.0202 23.9923 89.1345 24.5146L90.1505 26.2374ZM92.5832 25.0972C93.4293 24.7824 94.1181 24.648 94.6665 24.648V22.648C93.8069 22.648 92.8743 22.8549 91.8858 23.2228L92.5832 25.0972ZM87.5545 34.912C87.5545 36.2109 87.844 37.3722 88.4978 38.3255L90.1472 37.1945C89.777 36.6545 89.5545 35.9171 89.5545 34.912H87.5545ZM88.5088 38.3412C89.1151 39.1901 90.0017 40.066 91.1279 40.9714L92.3811 39.4126C91.3313 38.5687 90.5966 37.8232 90.1362 37.1788L88.5088 38.3412ZM91.3985 41.1265C92.292 41.4669 92.9192 41.6983 93.2623 41.8127L93.8947 39.9153C93.5978 39.8163 93.009 39.5998 92.1105 39.2575L91.3985 41.1265ZM93.3208 41.8302C93.7412 41.9423 94.1928 41.992 94.6665 41.992V39.992C94.3295 39.992 94.0558 39.9563 93.8362 39.8978L93.3208 41.8302ZM94.6665 41.992C97.0084 41.992 98.9881 41.3498 100.494 39.9692L99.1428 38.4948C98.0889 39.4609 96.634 39.992 94.6665 39.992V41.992ZM100.494 39.9692C102.018 38.5723 102.739 36.6734 102.739 34.4H100.739C100.739 36.2226 100.179 37.5451 99.1428 38.4948L100.494 39.9692ZM102.739 34.4C102.739 32.7215 102.553 31.3019 102.127 30.1996L100.262 30.9204C100.561 31.6954 100.739 32.8359 100.739 34.4H102.739ZM102.127 30.1996C101.689 29.0658 100.916 28.0854 99.865 27.2494L98.62 28.8146C99.4464 29.4719 99.9744 30.1768 100.262 30.9204L102.127 30.1996ZM99.8794 27.261C99.2492 26.7405 98.4753 26.3854 97.597 26.1659L97.112 28.1061C97.7697 28.2706 98.2544 28.5129 98.6056 28.803L99.8794 27.261ZM97.6035 26.1675C96.7655 25.952 95.8701 25.848 94.9225 25.848V27.848C95.7242 27.848 96.4502 27.936 97.1055 28.1045L97.6035 26.1675ZM94.9225 25.848C93.3842 25.848 92.0144 26.3132 90.8634 27.2596L92.1336 28.8044C92.9026 28.1721 93.8155 27.848 94.9225 27.848V25.848ZM90.8738 27.2511C89.7704 28.1338 88.9371 29.2786 88.3665 30.6576L90.2145 31.4223C90.6679 30.3267 91.3066 29.4662 92.1232 28.8129L90.8738 27.2511ZM88.3609 30.6714C87.8233 32.0272 87.5545 33.443 87.5545 34.912H89.5545C89.5545 33.693 89.7764 32.5275 90.2201 31.4086L88.3609 30.6714ZM124.67 26.816L123.9 27.454L123.902 27.4562L124.67 26.816ZM125.342 27.744L124.464 28.2228V28.2228L125.342 27.744ZM125.022 29.312L124.315 28.6049L124.303 28.6163L124.292 28.6281L125.022 29.312ZM123.038 29.632L123.485 28.7376L123.038 29.632ZM122.398 29.024L123.25 28.4999L123.243 28.4889L122.398 29.024ZM120.99 27.328L120.297 28.0494L120.305 28.0567L120.313 28.0639L120.99 27.328ZM113.502 28.672L112.743 28.0212L112.735 28.0299L112.728 28.0388L113.502 28.672ZM113.502 39.04L112.748 39.6968L112.755 39.7051L113.502 39.04ZM120.894 40.64L121.18 41.5985L121.192 41.5945L120.894 40.64ZM123.326 39.104L124.089 39.751L125.486 38.104H123.326V39.104ZM123.294 39.104L122.568 38.4163L120.969 40.104H123.294V39.104ZM125.694 38.944L124.987 39.6511L124.999 39.6633L125.012 39.6751L125.694 38.944ZM126.014 40.704L125.091 40.3194L125.082 40.3406L125.074 40.3623L126.014 40.704ZM125.502 41.504L126.241 42.1775L126.251 42.1663L126.261 42.1548L125.502 41.504ZM122.142 43.52L122.403 44.4855L122.413 44.4827L122.142 43.52ZM113.406 43.04L112.941 43.9256L112.947 43.9286L113.406 43.04ZM110.174 40.448L109.351 41.0157L109.374 41.049L109.399 41.0804L110.174 40.448ZM108.926 37.792L107.976 38.103L107.979 38.1135L107.983 38.1239L108.926 37.792ZM109.182 29.664L108.236 29.3406L108.233 29.3478L109.182 29.664ZM111.742 25.632L112.405 26.3802L112.411 26.3752L112.417 26.37L111.742 25.632ZM114.974 24.096L114.738 23.1241L114.974 24.096ZM121.246 24L120.859 24.9222L120.877 24.9296L120.895 24.9363L121.246 24ZM123.006 25.056L122.332 25.7945L122.341 25.8027L122.35 25.8106L123.006 25.056ZM123.902 27.4562C124.209 27.8253 124.383 28.075 124.464 28.2228L126.22 27.2652C126.045 26.9436 125.771 26.5747 125.438 26.1758L123.902 27.4562ZM124.464 28.2228C124.532 28.3471 124.534 28.4072 124.534 28.416H126.534C126.534 27.9982 126.408 27.6102 126.22 27.2651L124.464 28.2228ZM124.534 28.416C124.534 28.3202 124.565 28.2876 124.538 28.3359C124.51 28.384 124.446 28.4739 124.315 28.6049L125.729 30.0191C126.11 29.6386 126.534 29.0914 126.534 28.416H124.534ZM124.292 28.6281C124.187 28.7408 124.111 28.7923 124.071 28.8136C124.037 28.8322 124.037 28.824 124.062 28.824V30.824C124.765 30.824 125.331 30.445 125.752 29.9959L124.292 28.6281ZM124.062 28.824C123.721 28.824 123.551 28.7705 123.485 28.7376L122.591 30.5264C123.037 30.7495 123.55 30.824 124.062 30.824V28.824ZM123.485 28.7376C123.418 28.7039 123.336 28.6409 123.25 28.4999L121.546 29.5481C121.801 29.9618 122.146 30.3041 122.591 30.5264L123.485 28.7376ZM123.243 28.4889C122.793 27.7783 122.268 27.1447 121.667 26.5921L120.313 28.0639C120.779 28.4926 121.193 28.9897 121.553 29.5591L123.243 28.4889ZM121.683 26.6066C120.925 25.8793 119.942 25.56 118.846 25.56V27.56C119.542 27.56 119.988 27.7527 120.297 28.0494L121.683 26.6066ZM118.846 25.56C117.82 25.56 116.718 25.7968 115.553 26.2309L116.251 28.1051C117.262 27.7285 118.122 27.56 118.846 27.56V25.56ZM115.553 26.2309C114.376 26.6693 113.405 27.2484 112.743 28.0212L114.261 29.3228C114.623 28.9009 115.252 28.4774 116.251 28.1051L115.553 26.2309ZM112.728 28.0388C111.393 29.6702 110.774 31.7812 110.774 34.272H112.774C112.774 32.1121 113.307 30.4898 114.276 29.3052L112.728 28.0388ZM110.774 34.272C110.774 36.3542 111.428 38.1809 112.748 39.6968L114.256 38.3832C113.272 37.2538 112.774 35.9018 112.774 34.272H110.774ZM112.755 39.7051C114.164 41.2871 115.974 42.088 118.11 42.088V40.088C116.534 40.088 115.272 39.5235 114.249 38.3749L112.755 39.7051ZM118.11 42.088C119.079 42.088 120.104 41.9187 121.179 41.5984L120.609 39.6816C119.678 39.9587 118.848 40.088 118.11 40.088V42.088ZM121.192 41.5945C122.367 41.2273 123.35 40.6215 124.089 39.751L122.563 38.457C122.107 38.9945 121.469 39.4127 120.596 39.6855L121.192 41.5945ZM123.326 38.104H123.294V40.104H123.326V38.104ZM124.02 39.7917C124.208 39.5928 124.423 39.496 124.734 39.496V37.496C123.893 37.496 123.148 37.8046 122.568 38.4163L124.02 39.7917ZM124.734 39.496C124.75 39.496 124.829 39.4928 124.987 39.6511L126.401 38.2369C125.962 37.7979 125.401 37.496 124.734 37.496V39.496ZM125.012 39.6751C125.114 39.7703 125.157 39.835 125.173 39.8642C125.185 39.8881 125.174 39.8765 125.174 39.84H127.174C127.174 39.1565 126.804 38.612 126.376 38.2129L125.012 39.6751ZM125.174 39.84C125.174 40.0481 125.14 40.2025 125.091 40.3194L126.937 41.0886C127.102 40.6935 127.174 40.2719 127.174 39.84H125.174ZM125.074 40.3623C125.047 40.4379 124.96 40.5994 124.743 40.8532L126.261 42.1548C126.556 41.8112 126.811 41.4394 126.954 41.0457L125.074 40.3623ZM124.763 40.8305C124.026 41.6396 123.074 42.2192 121.871 42.5573L122.413 44.4827C123.941 44.0528 125.229 43.2884 126.241 42.1775L124.763 40.8305ZM121.881 42.5545C120.64 42.8895 119.194 43.064 117.534 43.064V45.064C119.33 45.064 120.956 44.8758 122.403 44.4855L121.881 42.5545ZM117.534 43.064C116.271 43.064 115.052 42.764 113.865 42.1514L112.947 43.9286C114.406 44.6813 115.938 45.064 117.534 45.064V43.064ZM113.871 42.1545C112.678 41.5288 111.709 40.7475 110.949 39.8156L109.399 41.0804C110.345 42.2391 111.531 43.1859 112.941 43.9255L113.871 42.1545ZM110.997 39.8803C110.642 39.3655 110.261 38.5736 109.869 37.4601L107.983 38.1239C108.402 39.3144 108.852 40.2931 109.351 41.0157L110.997 39.8803ZM109.876 37.481C109.506 36.348 109.35 35.515 109.35 34.944H107.35C107.35 35.8236 107.578 36.8893 107.976 38.103L109.876 37.481ZM109.35 34.944C109.35 33.1892 109.612 31.5365 110.131 29.9802L108.233 29.3478C107.643 31.1195 107.35 32.9868 107.35 34.944H109.35ZM110.128 29.9874C110.658 28.4364 111.426 27.2491 112.405 26.3802L111.079 24.8838C109.797 26.0202 108.858 27.521 108.236 29.3406L110.128 29.9874ZM112.417 26.37C112.997 25.8396 113.899 25.3856 115.21 25.0678L114.738 23.1241C113.233 23.4891 111.98 24.059 111.067 24.894L112.417 26.37ZM115.21 25.0678C116.558 24.741 117.768 24.584 118.846 24.584V22.584C117.577 22.584 116.206 22.7683 114.738 23.1241L115.21 25.0678ZM118.846 24.584C119.691 24.584 120.352 24.7094 120.859 24.9222L121.633 23.0778C120.817 22.7359 119.878 22.584 118.846 22.584V24.584ZM120.895 24.9363C121.47 25.1519 121.944 25.4404 122.332 25.7945L123.68 24.3175C123.087 23.7756 122.387 23.3601 121.597 23.0637L120.895 24.9363ZM122.35 25.8106C122.785 26.1888 123.301 26.731 123.9 27.454L125.44 26.178C124.802 25.4077 124.209 24.7765 123.662 24.3014L122.35 25.8106ZM144.208 43.52L145.009 42.92L145.003 42.9126L144.208 43.52ZM143.505 42.336L142.585 42.7299L142.589 42.7382L142.593 42.7464L143.505 42.336ZM142.896 40.736L143.842 40.41L143.834 40.3871L143.825 40.3646L142.896 40.736ZM142.512 39.776L141.572 40.1147L141.578 40.1312L141.584 40.1474L142.512 39.776ZM141.84 38.4L142.673 37.8453L142.323 37.3209L141.699 37.41L141.84 38.4ZM136.977 38.656L136.9 39.6531L136.92 39.6546L136.939 39.6553L136.977 38.656ZM135.729 38.592L135.649 39.5888L135.689 39.592H135.729V38.592ZM133.169 38.464V37.464H132.669L132.368 37.864L133.169 38.464ZM132.496 39.552L131.602 39.1048L131.592 39.1251L131.583 39.1459L132.496 39.552ZM131.825 41.28L130.884 40.9403L130.88 40.9529L131.825 41.28ZM130.832 43.648L131.69 44.1625L131.693 44.1567L130.832 43.648ZM128.401 43.84L127.915 44.7142L127.943 44.7299L127.972 44.7437L128.401 43.84ZM127.825 42.976L126.846 42.77L126.825 42.8719V42.976H127.825ZM128.625 40.416L127.702 40.0298L127.698 40.0408L128.625 40.416ZM130.257 36.768L131.163 37.1895L131.173 37.1679L131.182 37.1459L130.257 36.768ZM131.536 33.632L132.462 34.0099L132.467 33.9977L131.536 33.632ZM133.456 29.024L132.55 28.6011L132.545 28.6136L133.456 29.024ZM135.793 24.48L136.669 24.9611L136.678 24.9443L136.687 24.9272L135.793 24.48ZM136.433 23.84L136.929 24.7082L136.951 24.6953L136.973 24.6812L136.433 23.84ZM138.288 23.648L137.937 24.5843L138.003 24.609L138.072 24.6242L138.288 23.648ZM138.737 23.904L137.968 24.5442L137.997 24.579L138.029 24.6111L138.737 23.904ZM139.216 24.608L138.355 25.115L138.364 25.1317L138.375 25.148L139.216 24.608ZM141.073 28.096L140.153 28.4899L140.156 28.4968L140.159 28.5037L141.073 28.096ZM143.089 33.056L142.155 33.4144L142.159 33.4244L143.089 33.056ZM143.76 34.752L144.693 34.3895L144.69 34.3836L143.76 34.752ZM145.297 38.624L144.371 39.0019L144.375 39.0134L144.38 39.0248L145.297 38.624ZM146.769 41.44L147.62 40.9159L147.617 40.91L146.769 41.44ZM146.8 43.776L147.451 44.5353L147.455 44.5317L146.8 43.776ZM140.912 35.776L141.14 36.7498L142.344 36.4689L141.817 35.3502L140.912 35.776ZM139.44 32L138.495 32.3257L138.499 32.3363L139.44 32ZM137.456 27.424L138.32 26.9191L137.283 25.1461L136.527 27.056L137.456 27.424ZM135.664 31.392L136.547 31.8616L136.556 31.8458L136.564 31.8297L135.664 31.392ZM133.84 35.744L132.899 35.4057L132.477 36.5813L133.716 36.7363L133.84 35.744ZM145.003 42.9126C144.773 42.6124 144.578 42.2841 144.416 41.9256L142.593 42.7464C142.815 43.2413 143.089 43.7023 143.414 44.1274L145.003 42.9126ZM144.424 41.9421C144.244 41.5225 144.05 41.0129 143.842 40.41L141.951 41.062C142.17 41.6964 142.381 42.2535 142.585 42.7299L144.424 41.9421ZM143.825 40.3646C143.782 40.2579 143.654 39.9379 143.441 39.4046L141.584 40.1474C141.797 40.6807 141.925 41.0007 141.968 41.1074L143.825 40.3646ZM143.453 39.4373C143.24 38.8444 142.982 38.3099 142.673 37.8453L141.008 38.9547C141.211 39.2581 141.401 39.6409 141.572 40.1147L143.453 39.4373ZM141.699 37.41C140.378 37.5988 139.331 37.688 138.545 37.688V39.688C139.464 39.688 140.615 39.5852 141.982 39.3899L141.699 37.41ZM138.545 37.688C138.09 37.688 137.58 37.6777 137.014 37.6567L136.939 39.6553C137.525 39.677 138.06 39.688 138.545 39.688V37.688ZM137.053 37.6589C136.493 37.6159 136.046 37.592 135.729 37.592V39.592C135.966 39.592 136.351 39.6108 136.9 39.6531L137.053 37.6589ZM135.808 37.5952C134.73 37.5089 133.847 37.464 133.169 37.464V39.464C133.77 39.464 134.594 39.5044 135.649 39.5888L135.808 37.5952ZM132.368 37.864C132.076 38.2536 131.821 38.6675 131.602 39.1048L133.391 39.9992C133.556 39.6685 133.749 39.357 133.968 39.064L132.368 37.864ZM131.583 39.1459C131.397 39.5635 131.163 40.1666 130.884 40.9404L132.765 41.6196C133.04 40.8574 133.255 40.3085 133.41 39.9581L131.583 39.1459ZM130.88 40.9529C130.498 42.0541 130.194 42.7622 129.972 43.1393L131.693 44.1567C132.025 43.5952 132.383 42.7246 132.769 41.6071L130.88 40.9529ZM129.975 43.1335C129.983 43.1206 129.994 43.1067 130.007 43.0957C130.02 43.0852 130.025 43.0845 130.015 43.0889C129.989 43.0998 129.901 43.128 129.713 43.128V45.128C130.433 45.128 131.239 44.9142 131.69 44.1625L129.975 43.1335ZM129.713 43.128C129.384 43.128 129.094 43.0619 128.829 42.9363L127.972 44.7437C128.518 45.0021 129.102 45.128 129.713 45.128V43.128ZM128.886 42.9658C128.797 42.9163 128.788 42.8899 128.801 42.9093C128.807 42.9192 128.815 42.9339 128.82 42.951C128.825 42.9677 128.825 42.9775 128.825 42.976H126.825C126.825 43.7845 127.293 44.3686 127.915 44.7142L128.886 42.9658ZM128.803 43.182C128.96 42.4378 129.207 41.6412 129.551 40.7912L127.698 40.0408C127.316 40.9828 127.031 41.8929 126.846 42.77L128.803 43.182ZM129.547 40.8021C129.924 39.902 130.462 38.6992 131.163 37.1895L129.35 36.3465C128.643 37.8662 128.093 39.0954 127.702 40.0299L129.547 40.8021ZM131.182 37.1459L132.462 34.0099L130.611 33.2541L129.331 36.3901L131.182 37.1459ZM132.467 33.9977C133.167 32.2156 133.801 30.6954 134.368 29.4344L132.545 28.6136C131.96 29.9126 131.314 31.4644 130.606 33.2663L132.467 33.9977ZM134.363 29.4469C134.948 28.1928 135.716 26.6984 136.669 24.9611L134.916 23.9989C133.949 25.7602 133.16 27.2952 132.55 28.6011L134.363 29.4469ZM136.687 24.9272C136.71 24.8808 136.766 24.801 136.929 24.7082L135.936 22.9718C135.501 23.2203 135.131 23.5672 134.898 24.0328L136.687 24.9272ZM136.973 24.6812C137.107 24.5952 137.249 24.552 137.424 24.552V22.552C136.874 22.552 136.355 22.7008 135.892 22.9988L136.973 24.6812ZM137.424 24.552C137.604 24.552 137.738 24.5592 137.834 24.5699C137.938 24.5814 137.961 24.5933 137.937 24.5843L138.64 22.7117C138.286 22.5791 137.839 22.552 137.424 22.552V24.552ZM138.072 24.6242C138.083 24.6268 138.072 24.6259 138.048 24.6122C138.023 24.5977 137.994 24.5748 137.968 24.5442L139.505 23.2638C139.232 22.9367 138.873 22.7535 138.505 22.6718L138.072 24.6242ZM138.029 24.6111C138.016 24.5973 138.04 24.6209 138.11 24.7233C138.173 24.8159 138.254 24.9447 138.355 25.115L140.078 24.101C139.873 23.7514 139.654 23.4071 139.444 23.1969L138.029 24.6111ZM138.375 25.148C139.071 26.2337 139.664 27.3477 140.153 28.4899L141.992 27.7021C141.457 26.455 140.812 25.2436 140.058 24.068L138.375 25.148ZM140.159 28.5037C140.682 29.6745 141.347 31.3089 142.155 33.4143L144.022 32.6977C143.209 30.5791 142.53 28.9068 141.986 27.6883L140.159 28.5037ZM142.159 33.4244L142.831 35.1204L144.69 34.3836L144.018 32.6876L142.159 33.4244ZM142.828 35.1144C143.427 36.6535 143.941 37.9497 144.371 39.0019L146.222 38.2461C145.798 37.2076 145.289 35.9225 144.693 34.3896L142.828 35.1144ZM144.38 39.0248C144.846 40.0887 145.359 41.0711 145.921 41.97L147.617 40.91C147.112 40.1022 146.643 39.2073 146.213 38.2232L144.38 39.0248ZM145.917 41.9641C146.075 42.2217 146.178 42.4145 146.239 42.5501C146.269 42.6173 146.282 42.6574 146.287 42.6747C146.293 42.6968 146.281 42.6633 146.281 42.592H148.281C148.281 42.2666 148.164 41.9576 148.066 41.7379C147.956 41.4895 147.803 41.213 147.62 40.9159L145.917 41.9641ZM146.281 42.592C146.281 42.8803 146.201 42.9724 146.146 43.0203L147.455 44.5317C148.04 44.0249 148.281 43.3277 148.281 42.592H146.281ZM146.15 43.0167C146.074 43.0818 145.929 43.16 145.617 43.16V45.16C146.285 45.16 146.93 44.9822 147.451 44.5353L146.15 43.0167ZM145.617 43.16C145.255 43.16 145.108 43.0524 145.008 42.92L143.409 44.12C143.949 44.841 144.74 45.16 145.617 45.16V43.16ZM141.817 35.3502C141.499 34.673 141.022 33.4551 140.382 31.6637L138.499 32.3363C139.139 34.1289 139.644 35.4283 140.008 36.2018L141.817 35.3502ZM140.386 31.6743C139.714 29.722 139.027 28.1287 138.32 26.9191L136.593 27.9289C137.208 28.9806 137.845 30.438 138.495 32.3257L140.386 31.6743ZM136.527 27.056C136.135 28.0463 135.55 29.3434 134.765 30.9543L136.564 31.8297C137.358 30.1979 137.968 28.8497 138.386 27.792L136.527 27.056ZM134.782 30.9224C134.215 31.9878 133.588 33.4908 132.899 35.4057L134.782 36.0823C135.458 34.1999 136.047 32.8015 136.547 31.8616L134.782 30.9224ZM133.716 36.7363C135.128 36.9128 136.642 37 138.257 37V35C136.713 35 135.283 34.9166 133.965 34.7517L133.716 36.7363ZM138.257 37C139.417 37 140.391 36.9246 141.14 36.7498L140.685 34.8022C140.154 34.926 139.357 35 138.257 35V37ZM162.885 33.216L162.619 32.2522L162.748 34.2065L162.885 33.216ZM166.341 34.912L165.574 35.554L165.582 35.5628L166.341 34.912ZM166.309 41.312L165.537 40.6768L165.528 40.6873L166.309 41.312ZM163.333 43.296L163.047 42.3377L163.013 42.3481L162.979 42.361L163.333 43.296ZM160.549 43.872L160.654 44.8665L160.662 44.8657L160.669 44.8648L160.549 43.872ZM152.005 43.584L151.809 44.5646L151.819 44.5666L151.829 44.5684L152.005 43.584ZM150.981 43.104L150.381 43.904L150.393 43.9127L150.405 43.921L150.981 43.104ZM150.469 41.984H151.469V41.9724L151.469 41.9608L150.469 41.984ZM150.501 38.144L149.502 38.1095L149.502 38.118L150.501 38.144ZM150.533 33.792H149.533V33.8214L149.535 33.8507L150.533 33.792ZM150.469 31.136L151.469 31.1003L151.468 31.0932L151.468 31.0861L150.469 31.136ZM150.373 27.2H151.373V26.7444L151.029 26.4454L150.373 27.2ZM150.213 24.576L150.799 25.3867L150.806 25.3811L150.213 24.576ZM151.653 24.064L151.73 25.0611L151.732 25.0609L151.653 24.064ZM152.869 23.968L152.948 24.9649L152.957 24.9642L152.966 24.9633L152.869 23.968ZM161.829 24.224L161.523 25.1759L161.532 25.1789L161.542 25.1818L161.829 24.224ZM164.997 26.048L165.75 25.3895L165.728 25.3644L165.704 25.3409L164.997 26.048ZM165.733 27.36L164.792 27.6987L164.797 27.7111L165.733 27.36ZM166.021 28.864H165.021V28.8744L165.021 28.8848L166.021 28.864ZM165.221 31.616L166.04 32.191L166.047 32.1807L165.221 31.616ZM155.621 26.464L155.514 25.4698L155.511 25.4701L155.621 26.464ZM153.669 26.784L153.436 25.8116L152.642 26.0022L152.67 26.8183L153.669 26.784ZM153.861 32.384L152.862 32.4183L152.896 33.4112L153.889 33.3836L153.861 32.384ZM155.013 32.352L155.041 33.3516L155.055 33.3512L155.069 33.3505L155.013 32.352ZM155.589 32.32L155.614 31.3203L155.574 31.3193L155.534 31.3215L155.589 32.32ZM156.869 32.352L156.94 31.3545L156.917 31.3529L156.894 31.3523L156.869 32.352ZM159.109 32.352L159.22 33.3459L159.268 33.3405L159.316 33.3305L159.109 32.352ZM162.405 28.48L161.469 28.8311L161.473 28.8413L161.477 28.8514L162.405 28.48ZM161.989 27.744L162.696 27.0369L162.69 27.0302L162.683 27.0237L161.989 27.744ZM153.797 41.12L152.798 41.0892L152.77 41.9772L153.649 42.1089L153.797 41.12ZM155.589 41.28L155.534 42.2785L155.535 42.2785L155.589 41.28ZM161.989 40.512L162.417 41.4161L161.989 40.512ZM161.765 35.52L161.318 36.4144L161.765 35.52ZM159.877 35.072V34.072H159.868L159.859 34.0722L159.877 35.072ZM158.117 35.104L158.099 34.1042L158.089 34.1043L158.079 34.1047L158.117 35.104ZM153.957 35.104L154.034 34.1069L152.976 34.0255L152.957 35.0868L153.957 35.104ZM162.748 34.2065C164.113 34.3961 165.008 34.8777 165.574 35.5539L167.108 34.2701C166.138 33.1116 164.73 32.4626 163.023 32.2255L162.748 34.2065ZM165.582 35.5628C166.19 36.2716 166.493 37.0948 166.493 38.08H168.493C168.493 36.6332 168.029 35.3444 167.101 34.2612L165.582 35.5628ZM166.493 38.08C166.493 39.0331 166.185 39.888 165.537 40.6769L167.082 41.9471C168.012 40.816 168.493 39.5163 168.493 38.08H166.493ZM165.528 40.6873C164.892 41.4829 164.075 42.0313 163.047 42.3377L163.619 44.2543C165.024 43.8354 166.191 43.0611 167.09 41.9367L165.528 40.6873ZM162.979 42.361C162.475 42.5519 161.644 42.7326 160.429 42.8792L160.669 44.8648C161.929 44.7127 162.954 44.5094 163.688 44.231L162.979 42.361ZM160.445 42.8775C159.255 43.0027 158.192 43.064 157.253 43.064V45.064C158.277 45.064 159.411 44.9973 160.654 44.8665L160.445 42.8775ZM157.253 43.064C155.609 43.064 153.919 42.9099 152.181 42.5996L151.829 44.5684C153.676 44.8981 155.484 45.064 157.253 45.064V43.064ZM152.201 42.6034C152.058 42.5748 151.845 42.4899 151.558 42.287L150.405 43.921C150.843 44.2301 151.312 44.4652 151.809 44.5646L152.201 42.6034ZM151.581 42.304C151.532 42.2669 151.469 42.2137 151.469 41.984H149.469C149.469 42.7356 149.748 43.4291 150.381 43.904L151.581 42.304ZM151.469 41.9608C151.448 41.0678 151.458 39.8068 151.501 38.17L149.502 38.118C149.459 39.7665 149.448 41.0655 149.47 42.0072L151.469 41.9608ZM151.501 38.1785C151.543 36.9391 151.565 36.0074 151.565 35.392H149.565C149.565 35.9712 149.544 36.8743 149.502 38.1095L151.501 38.1785ZM151.565 35.392C151.565 34.6829 151.555 34.126 151.532 33.7333L149.535 33.8507C149.555 34.1833 149.565 34.6931 149.565 35.392H151.565ZM151.533 33.792C151.533 33.1972 151.511 32.2971 151.469 31.1003L149.47 31.1717C149.512 32.3642 149.533 33.2348 149.533 33.792H151.533ZM151.468 31.0861C151.405 29.8235 151.373 28.5281 151.373 27.2H149.373C149.373 28.5599 149.406 29.8885 149.47 31.1859L151.468 31.0861ZM151.029 26.4454C150.735 26.1897 150.637 25.9442 150.637 25.664H148.637C148.637 26.5785 149.03 27.357 149.717 27.9546L151.029 26.4454ZM150.637 25.664C150.637 25.5581 150.658 25.4887 150.799 25.3867L149.628 23.7653C149.001 24.218 148.637 24.8739 148.637 25.664H150.637ZM150.806 25.3811C151.045 25.205 151.342 25.0909 151.73 25.0611L151.577 23.0669C150.855 23.1224 150.192 23.3497 149.62 23.7709L150.806 25.3811ZM151.732 25.0609L152.948 24.9649L152.791 22.9711L151.575 23.0671L151.732 25.0609ZM152.966 24.9633C155.385 24.7279 156.947 24.616 157.701 24.616V22.616C156.834 22.616 155.175 22.7388 152.772 22.9727L152.966 24.9633ZM157.701 24.616C159.104 24.616 160.375 24.8062 161.523 25.1759L162.136 23.2721C160.766 22.8311 159.285 22.616 157.701 22.616V24.616ZM161.542 25.1818C162.685 25.5248 163.59 26.0552 164.29 26.7551L165.704 25.3409C164.74 24.3768 163.533 23.6912 162.117 23.2662L161.542 25.1818ZM164.245 26.7065C164.443 26.9337 164.632 27.2546 164.792 27.6987L166.674 27.0213C166.45 26.3988 166.148 25.845 165.75 25.3895L164.245 26.7065ZM164.797 27.7111C164.952 28.1236 165.021 28.5062 165.021 28.864H167.021C167.021 28.2405 166.899 27.6204 166.67 27.0089L164.797 27.7111ZM165.021 28.8848C165.039 29.7097 164.828 30.4205 164.396 31.0513L166.047 32.1807C166.724 31.1902 167.047 30.0663 167.021 28.8432L165.021 28.8848ZM164.403 31.0411C163.992 31.6254 163.417 32.0314 162.619 32.2522L163.152 34.1798C164.359 33.8459 165.341 33.1853 166.039 32.1909L164.403 31.0411ZM157.893 25.336C157.129 25.336 156.335 25.381 155.514 25.4698L155.729 27.4582C156.486 27.3764 157.207 27.336 157.893 27.336V25.336ZM155.511 25.4701C154.717 25.5583 154.022 25.6709 153.436 25.8116L153.903 27.7564C154.383 27.6411 154.99 27.5403 155.732 27.4579L155.511 25.4701ZM152.67 26.8183L152.862 32.4183L154.861 32.3497L154.669 26.7497L152.67 26.8183ZM153.889 33.3836L155.041 33.3516L154.985 31.3524L153.833 31.3844L153.889 33.3836ZM155.069 33.3505L155.645 33.3185L155.534 31.3215L154.958 31.3535L155.069 33.3505ZM155.564 33.3197L156.844 33.3517L156.894 31.3523L155.614 31.3203L155.564 33.3197ZM156.798 33.3495C157.396 33.3922 157.854 33.416 158.149 33.416V31.416C157.932 31.416 157.537 31.3971 156.94 31.3545L156.798 33.3495ZM158.149 33.416C158.456 33.416 158.815 33.3908 159.22 33.3459L158.999 31.3581C158.635 31.3985 158.355 31.416 158.149 31.416V33.416ZM159.316 33.3305C160.556 33.0687 161.608 32.6568 162.366 32.0236C163.164 31.3579 163.597 30.4765 163.597 29.44H161.597C161.597 29.8542 161.45 30.1834 161.084 30.4884C160.68 30.8259 159.988 31.1446 158.903 31.3735L159.316 33.3305ZM163.597 29.44C163.597 28.9833 163.505 28.5376 163.334 28.1086L161.477 28.8514C161.561 29.0624 161.597 29.2567 161.597 29.44H163.597ZM163.342 28.1289C163.195 27.7373 162.995 27.3353 162.696 27.0369L161.282 28.4511C161.276 28.4446 161.296 28.4636 161.335 28.5321C161.372 28.5986 161.418 28.6958 161.469 28.8311L163.342 28.1289ZM162.683 27.0237C162.026 26.3914 161.312 25.9216 160.535 25.672L159.923 27.576C160.341 27.7104 160.8 27.9873 161.296 28.4643L162.683 27.0237ZM160.535 25.672C159.801 25.436 158.908 25.336 157.893 25.336V27.336C158.798 27.336 159.463 27.428 159.923 27.576L160.535 25.672ZM153.649 42.1089C154.121 42.1798 154.755 42.2352 155.534 42.2785L155.645 40.2815C154.888 40.2395 154.327 40.1882 153.946 40.1311L153.649 42.1089ZM155.535 42.2785C156.336 42.3219 157.038 42.344 157.637 42.344V40.344C157.084 40.344 156.421 40.3235 155.643 40.2815L155.535 42.2785ZM157.637 42.344C159.466 42.344 161.073 42.0512 162.417 41.4161L161.562 39.6079C160.559 40.0821 159.264 40.344 157.637 40.344V42.344ZM162.417 41.4161C163.114 41.0862 163.706 40.6449 164.123 40.0612C164.547 39.4675 164.749 38.7833 164.749 38.048H162.749C162.749 38.4007 162.658 38.6711 162.496 38.8988C162.326 39.1365 162.037 39.3832 161.562 39.6079L162.417 41.4161ZM164.749 38.048C164.749 37.3164 164.451 36.6483 163.997 36.0606L162.414 37.2834C162.685 37.6343 162.749 37.8836 162.749 38.048H164.749ZM163.997 36.0606C163.531 35.458 162.927 34.983 162.212 34.6256L161.318 36.4144C161.798 36.6544 162.154 36.9473 162.414 37.2834L163.997 36.0606ZM162.212 34.6256C161.478 34.2582 160.695 34.072 159.877 34.072V36.072C160.382 36.072 160.858 36.1845 161.318 36.4144L162.212 34.6256ZM159.859 34.0722L158.099 34.1042L158.135 36.1038L159.895 36.0718L159.859 34.0722ZM158.079 34.1047C156.974 34.1472 156.125 34.168 155.525 34.168V36.168C156.163 36.168 157.042 36.1461 158.156 36.1033L158.079 34.1047ZM155.525 34.168C155.063 34.168 154.566 34.1479 154.034 34.1069L153.881 36.1011C154.457 36.1454 155.006 36.168 155.525 36.168V34.168ZM152.957 35.0868C152.936 36.3168 152.883 38.3163 152.798 41.0892L154.797 41.1508C154.882 38.377 154.936 36.3659 154.957 35.1212L152.957 35.0868Z" fill="black" mask="url(#path-4-outside-1_118_1767)"/>
<path d="M112 141.666C109.5 133.5 81 115.5 1 118.166V107.166C42.5 107.166 101 107.666 114 130.166H120C133.6 107.366 191 107.166 232 107.666V118.166C147.2 117.366 124 133.499 122 141.666H112Z" fill="#ECAE42" stroke="black"/>
</svg>
