<svg width="111" height="145" viewBox="0 0 111 145" fill="none" xmlns="http://www.w3.org/2000/svg">
<path d="M96.5 34C96.5 38.3847 95.0003 43.6146 92.4464 49.0148C89.8959 54.4082 86.3102 59.9371 82.1779 64.9115C78.0449 69.8866 73.3763 74.2935 68.6668 77.4526C63.9496 80.6168 59.2353 82.5 55 82.5C50.6385 82.5 45.9244 80.6157 41.2814 77.4546C36.6442 74.2974 32.1171 69.8926 28.1405 64.9187C24.1647 59.9458 20.7501 54.4176 18.3312 49.024C15.9096 43.6243 14.5 38.3908 14.5 34C14.5 16.4014 32.2754 0.5 55 0.5C66.3451 0.5 76.733 4.47314 84.278 10.6558C91.8256 16.8404 96.5 25.2084 96.5 34Z" fill="#ECAE42" stroke="black"/>
<mask id="path-2-inside-1_118_1768" fill="white">
<path d="M61.5 52.5C61.5 40.902 70.902 31.5 82.5 31.5H87C87.2761 31.5 87.5 31.7239 87.5 32V32.5C87.5 45.7548 76.7548 56.5 63.5 56.5H62.5C61.9477 56.5 61.5 56.0523 61.5 55.5V52.5Z"/>
</mask>
<path d="M61.5 52.5C61.5 40.902 70.902 31.5 82.5 31.5H87C87.2761 31.5 87.5 31.7239 87.5 32V32.5C87.5 45.7548 76.7548 56.5 63.5 56.5H62.5C61.9477 56.5 61.5 56.0523 61.5 55.5V52.5Z" fill="#1D1617" stroke="black" stroke-width="2" mask="url(#path-2-inside-1_118_1768)"/>
<mask id="path-3-inside-2_118_1768" fill="white">
<path d="M49.5 52.5C49.5 40.902 40.098 31.5 28.5 31.5H24C23.7239 31.5 23.5 31.7239 23.5 32V32.5C23.5 45.7548 34.2452 56.5 47.5 56.5H48.5C49.0523 56.5 49.5 56.0523 49.5 55.5V52.5Z"/>
</mask>
<path d="M49.5 52.5C49.5 40.902 40.098 31.5 28.5 31.5H24C23.7239 31.5 23.5 31.7239 23.5 32V32.5C23.5 45.7548 34.2452 56.5 47.5 56.5H48.5C49.0523 56.5 49.5 56.0523 49.5 55.5V52.5Z" fill="#1D1617" stroke="black" stroke-width="2" mask="url(#path-3-inside-2_118_1768)"/>
<path d="M1.17386 82.5404C0.849658 79.8604 2.94171 77.5 5.64129 77.5H105.359C108.058 77.5 110.15 79.8604 109.826 82.5404L103.536 134.54C103.262 136.8 101.345 138.5 99.0684 138.5H11.9316C9.65534 138.5 7.73754 136.8 7.46418 134.54L1.17386 82.5404Z" fill="#686EE0" stroke="black"/>
<path d="M55.5 100L58.0819 107.946H66.4371L59.6776 112.857L62.2595 120.804L55.5 115.893L48.7405 120.804L51.3224 112.857L44.5628 107.946H52.9181L55.5 100Z" fill="#ECAE42"/>
<rect x="6.5" y="140.5" width="98" height="4" rx="1.5" fill="#686EE0" stroke="black"/>
</svg>
