<svg width="825" height="771" viewBox="0 0 825 771" fill="none" xmlns="http://www.w3.org/2000/svg">
<path d="M90.2763 554.503L386.557 46.0088L679.938 556.182L90.2763 554.503Z" stroke="#ECAE42" stroke-width="44"/>
<path d="M138.683 547.557L370.265 92.9867L643.557 523.773L138.683 547.557Z" stroke="#ECAE42" stroke-width="11"/>
<path d="M386 377.5L824 1V44.5L386 377.5L824 87.5V128L386 377.5L824 169.5V211L386 377.5L824 252.5V292.5L386 377.5L824 332.5V375L386 377.5L824 412.5V451.5L386 377.5L824 494V533L386 377.5Z" fill="#ECAE42"/>
<path d="M386 377.5L824 1V44.5L386 377.5ZM386 377.5L824 87.5V128L386 377.5ZM386 377.5L824 169.5V211L386 377.5ZM386 377.5L824 252.5V292.5L386 377.5ZM386 377.5L824 332.5V375L386 377.5ZM386 377.5L824 412.5V451.5L386 377.5ZM386 377.5L824 494V533L386 377.5Z" stroke="#ECAE42" stroke-width="0.2"/>
<path d="M5 228L386 377.5L5 285.5V228Z" fill="#ECAE42" stroke="#ECAE42"/>
</svg>
