<?xml version="1.0" standalone="no"?>
<!DOCTYPE svg PUBLIC "-//W3C//DTD SVG 20010904//EN"
 "http://www.w3.org/TR/2001/REC-SVG-20010904/DTD/svg10.dtd">
<svg version="1.0" xmlns="http://www.w3.org/2000/svg"
 width="1003.000000pt" height="1003.000000pt" viewBox="0 0 1003.000000 1003.000000"
 preserveAspectRatio="xMidYMid meet">

<g transform="translate(0.000000,1003.000000) scale(0.100000,-0.100000)"
fill="#000000" stroke="none">
<path d="M4780 10024 c-235 -16 -365 -29 -504 -49 -709 -105 -1391 -363 -1991
-753 -914 -594 -1614 -1471 -1984 -2485 -275 -755 -361 -1526 -261 -2343 166
-1349 870 -2565 1965 -3390 931 -702 2078 -1053 3246 -996 1115 55 2126 451
2994 1173 128 107 411 384 529 519 600 683 995 1487 1165 2370 111 575 116
1176 15 1780 -132 793 -446 1526 -930 2169 -177 236 -297 372 -510 581 -598
587 -1317 1006 -2114 1235 -295 84 -640 149 -935 175 -125 11 -590 21 -685 14z
m480 -3359 c392 -665 725 -1231 740 -1256 l28 -46 -206 -176 c-114 -97 -210
-173 -214 -169 -4 4 -266 414 -583 912 -317 498 -580 908 -584 912 -3 4 -272
-499 -596 -1118 -324 -620 -594 -1133 -600 -1140 -8 -11 -55 4 -247 79 -131
50 -238 96 -238 100 0 19 1774 3127 1781 3120 4 -5 328 -552 719 -1218z m3724
953 l6 -217 -2202 -1652 c-1212 -908 -2194 -1642 -2183 -1631 33 33 4368 3723
4370 3720 1 -2 5 -101 9 -220z m4 -1033 c-2 -1 -3972 -2255 -4268 -2423 -25
-14 -42 -22 -37 -17 4 5 973 644 2155 1420 l2147 1412 3 -195 c1 -107 1 -196
0 -197z m5 -836 c-9 -7 -4336 -1650 -4339 -1646 -1 1 975 468 2169 1037 l2172
1036 3 -210 c1 -115 -1 -213 -5 -217z m-6464 -924 c1028 -401 1868 -731 1866
-733 -2 -2 -3383 806 -3700 884 l-60 15 3 285 c1 162 6 284 12 282 4 -2 850
-331 1879 -733z m6481 312 l0 -203 -2151 -423 c-1183 -232 -2152 -421 -2155
-419 -4 4 4271 1246 4294 1247 9 1 12 -46 12 -202z m8 -818 l2 -207 -272 -6
c-425 -10 -3830 -48 -3953 -44 -95 3 181 34 2035 235 1180 127 2154 230 2165
230 19 -2 20 -10 23 -208z m-6145 112 c136 -32 250 -61 253 -64 3 -3 -202
-402 -456 -887 -254 -485 -460 -883 -458 -884 4 -3 4786 131 4820 136 27 3 24
8 -141 268 -93 146 -168 266 -167 268 3 2 666 -225 671 -230 15 -16 524 -892
521 -895 -4 -5 -6618 38 -6624 42 -7 6 1314 2312 1323 2309 5 -2 122 -30 258
-63z m1814 -347 c-3 -3 -12 -4 -19 -1 -8 3 -5 6 6 6 11 1 17 -2 13 -5z m2194
-210 l2136 -159 7 -183 c4 -101 5 -187 1 -190 -5 -5 -4229 665 -4340 689 -39
8 -39 8 10 5 28 -2 1011 -75 2186 -162z m-13 -425 l2162 -554 0 -193 c0 -180
-1 -194 -17 -190 -63 17 -4293 1473 -4313 1485 -14 8 -18 12 -10 10 8 -2 988
-253 2178 -558z"/>
<path d="M4515 7023 c-10 -15 -18 -32 -18 -38 0 -11 998 -1583 1016 -1600 5
-5 1 6 -10 25 -12 19 -231 393 -488 830 -257 437 -471 799 -475 803 -4 4 -15
-4 -25 -20z"/>
<path d="M2452 3396 c-249 -437 -452 -797 -452 -800 0 -3 16 -6 35 -6 25 0 38
6 49 23 7 12 195 369 416 792 221 424 404 773 407 778 2 4 2 7 0 7 -2 0 -207
-357 -455 -794z"/>
<path d="M6215 2596 c-698 -21 -714 -22 -506 -29 118 -4 497 -7 843 -7 l629 0
-18 30 -17 30 -106 -1 c-58 -1 -429 -12 -825 -23z"/>
</g>
</svg>
