<svg width="1185" height="1185" viewBox="0 0 1185 1185" fill="none" xmlns="http://www.w3.org/2000/svg">
<path d="M253.276 851.503L549.557 343.009L842.938 853.182L253.276 851.503Z" stroke="#ECAE42" stroke-width="44"/>
<path d="M301.683 844.557L533.265 389.987L806.557 820.773L301.683 844.557Z" stroke="#ECAE42" stroke-width="11"/>
<path d="M549 674.5L987 298V341.5L549 674.5L987 384.5V425L549 674.5L987 466.5V508L549 674.5L987 549.5V589.5L549 674.5L987 629.5V672L549 674.5L987 709.5V748.5L549 674.5L987 791V830L549 674.5Z" fill="#ECAE42"/>
<path d="M549 674.5L987 298V341.5L549 674.5ZM549 674.5L987 384.5V425L549 674.5ZM549 674.5L987 466.5V508L549 674.5ZM549 674.5L987 549.5V589.5L549 674.5ZM549 674.5L987 629.5V672L549 674.5ZM549 674.5L987 709.5V748.5L549 674.5ZM549 674.5L987 791V830L549 674.5Z" stroke="#ECAE42" stroke-width="0.2"/>
<path d="M168 525L549 674.5L168 582.5V525Z" fill="#ECAE42" stroke="#ECAE42"/>
<circle cx="592.5" cy="592.5" r="570.5" stroke="#ECAE42" stroke-width="44"/>
</svg>
